<svg width="40" height="40" viewBox="0 0 40 40" xmlns="http://www.w3.org/2000/svg">
    <title>icon_name_payment-paymentaccept_new</title>
    <g fill="none" fill-rule="evenodd">
        <circle fill="#716AEB" cx="20" cy="20" r="20"/>
        <path d="M24.856 16.83c-1.036.06-1.411.433-1.677.755-.357.434-.481 1.687-.481 1.687s-.096.752-.096 1.11c0 .301.096.87.096.87s.603 2.296 2.454 2.296a.725.725 0 0 0 .266-.05c1.544-.293 2.06-2.26 2.06-2.26s.065-.657.065-.967c0-.35-.065-1.012-.065-1.012s-.125-1.254-.482-1.687c-.29-.352-.71-.764-1.972-.764a.66.66 0 0 0-.168.022zm.169 12.156l-5.324.015c-.303 0-.768-.1-.768-.82v-.414c0-.557.376-.973 1.522-1.722.92-.601 1.91-1.308 2.776-1.305.854.003.887.315 1.759.33a.377.377 0 0 1 .04-.002c.91-.007.9-.32 1.767-.323.866-.003 1.846.673 2.767 1.275 1.146.748 1.556 1.232 1.556 1.788 0 .557-.025-.343-.025.377s-.465.82-.768.82l-5.298-.001-.004-.018zM12.032 12.436l3.957 3.985-.044-2.453L18 13.941l-.013 6.063-5.996.006-.005-2.021 2.507.017-4.033-4.008 1.572-1.562z"
              fill="#FFF"/>
    </g>
</svg>